<svg width="1000" height="240" viewBox="0 0 1000 240" fill="none" xmlns="http://www.w3.org/2000/svg" role="img" aria-labelledby="title desc">
  <title id="title">JobHut logo</title>
  <desc id="desc">Blue and black JH monogram with JobHut wordmark and Leading Towards Success tagline.</desc>
  <rect width="1000" height="240" fill="white"/>
  <g transform="translate(30 10)">
    <path d="M110 0A110 110 0 0 0 0 110H32A78 78 0 0 1 110 32V0Z" fill="#347AB9"/>
    <path d="M120 0A110 110 0 0 1 230 110H198A78 78 0 0 0 120 32V0Z" fill="#020202"/>
    <path d="M230 120A110 110 0 0 1 120 230V198A78 78 0 0 0 198 120H230Z" fill="#347AB9"/>
    <path d="M110 230A110 110 0 0 1 0 120H32A78 78 0 0 0 110 198V230Z" fill="#020202"/>
    <rect x="0" y="109" width="230" height="14" fill="white"/>
    <rect x="109" y="0" width="14" height="230" fill="white"/>
    <path d="M102 42V172C102 179 96 184 88 184C79 184 72 177 72 167H42C42 194 61 216 88 216C115 216 132 198 132 172V42H102Z" fill="#347AB9"/>
    <path d="M146 54H176V109H206V54H236V216H206V137H176V216H146V54Z" fill="#347AB9"/>
  </g>
  <text x="300" y="150" fill="#020202" font-family="Arial Black, Arial, Helvetica, sans-serif" font-size="118" font-weight="900" letter-spacing="-5">JOBHUT</text>
  <text x="540" y="205" fill="#020202" font-family="Arial, Helvetica, sans-serif" font-size="28" font-weight="700" letter-spacing="0.5">LEADING TOWARDS SUCCESS</text>
</svg>
